<svg width="33" height="33" viewBox="0 0 33 33" fill="none" xmlns="http://www.w3.org/2000/svg">
<g clip-path="url(#clip0_17_524)">
<path d="M32.8695 14.0051L27.3467 6.73195C27.1448 6.46135 26.7671 6.39535 26.487 6.58015L22.9181 8.87695H18.268C18.2093 8.87695 18.1507 8.89015 18.0921 8.90995L14.4841 9.95935L10.7392 8.92315L7.10514 6.58015C6.8251 6.40195 6.46038 6.46135 6.25198 6.71875L0.143036 14.3879C-0.0783968 14.6651 -0.0393204 15.0677 0.227701 15.2987L3.43196 18.0906L6.30408 22.011C5.46394 22.9151 5.48347 24.3474 6.35618 25.2318C6.74694 25.6212 7.2354 25.8456 7.74339 25.8984C7.72385 26.0172 7.71734 26.136 7.71734 26.2548C7.71734 26.8752 7.95831 27.4559 8.38815 27.8916C8.81799 28.3272 9.39762 28.5714 10.0033 28.5714C10.0098 28.5714 10.0228 28.5714 10.0294 28.5714C10.0294 28.5846 10.0294 28.6044 10.0294 28.6176C10.0294 29.238 10.2703 29.8188 10.7002 30.2544C11.13 30.69 11.7096 30.9342 12.3153 30.9342C12.4391 30.9342 12.5563 30.921 12.6735 30.9078C12.7256 31.4226 12.9405 31.9242 13.3313 32.3202C13.7742 32.769 14.3603 33 14.9465 33C15.5326 33 16.1188 32.7756 16.5616 32.3202L16.9133 31.9638L17.0631 32.0826C17.506 32.5182 18.0791 32.736 18.6522 32.736C19.2384 32.736 19.8245 32.5116 20.2674 32.0562C20.7233 31.5942 20.9447 30.9869 20.9382 30.3797C21.5374 30.3864 22.1365 30.162 22.5924 29.7C23.0483 29.238 23.2697 28.6308 23.2632 28.0236C23.8885 28.0368 24.4746 27.7926 24.9175 27.3438C25.3734 26.8818 25.5948 26.2746 25.5883 25.6674C26.1874 25.674 26.7866 25.4496 27.2425 24.9876C28.0175 24.2022 28.1217 22.9811 27.5421 22.0836L29.6392 17.6285L32.7913 14.8764C33.0388 14.6718 33.0779 14.2757 32.8695 14.0051ZM6.89674 7.99915L9.50834 9.68215L3.82273 16.7045L1.54327 14.7179L6.89674 7.99915ZM7.26796 22.8888L8.056 22.0902C8.08205 22.0638 8.1081 22.044 8.12764 22.0241C8.28395 21.8988 8.4663 21.8196 8.6682 21.7998C8.67471 21.7998 8.68122 21.7998 8.68774 21.7998C8.71379 21.7998 8.74635 21.7932 8.7724 21.7932C9.04594 21.7998 9.29342 21.912 9.48229 22.11C9.847 22.4994 9.82746 23.1396 9.4367 23.5356L8.67471 24.3078C8.29046 24.6972 7.65873 24.6972 7.26796 24.3078C6.8772 23.9184 6.8772 23.2782 7.26796 22.8888ZM9.29342 26.9676C9.10455 26.7762 9.00035 26.5254 9.00035 26.2548C9.00035 25.9841 9.10455 25.7334 9.29342 25.542L10.8239 23.9909C11.117 23.694 11.5794 23.6147 11.9506 23.793C12.3349 23.9778 12.5563 24.4067 12.4977 24.8292C12.4651 25.0602 12.3609 25.2714 12.2046 25.4364L10.7002 26.961C10.5113 27.1524 10.2638 27.258 9.9968 27.258C9.72977 27.2646 9.48229 27.159 9.29342 26.9676ZM11.6054 29.3303C11.4166 29.139 11.3124 28.8882 11.3124 28.6176C11.3124 28.347 11.4166 28.0961 11.6054 27.9047L13.1359 26.3538C13.4485 26.037 13.95 25.971 14.3343 26.1954C14.686 26.4 14.8683 26.8092 14.8097 27.2118C14.7771 27.4362 14.6729 27.6407 14.5166 27.7992L13.0122 29.3238C12.8233 29.5152 12.5758 29.6208 12.3088 29.6208C12.0418 29.6274 11.7943 29.5217 11.6054 29.3303ZM14.2366 31.3962C13.8523 31.0068 13.8523 30.3666 14.2366 29.9706L15.0246 29.172C15.0507 29.1456 15.0767 29.1257 15.0963 29.1059C15.2265 29.0003 15.3763 28.9278 15.5391 28.9014C15.5456 28.9014 15.5456 28.9014 15.5522 28.9014C15.5782 28.8948 15.6108 28.8948 15.6368 28.8882C15.6498 28.8882 15.6564 28.8882 15.6694 28.8882C15.6954 28.8882 15.715 28.8882 15.741 28.8882C16.008 28.8948 16.262 29.007 16.4509 29.205C16.477 29.2313 16.4965 29.2577 16.516 29.2841C16.8156 29.6802 16.7765 30.261 16.4053 30.6371L15.6433 31.4094C15.2526 31.7856 14.6273 31.7856 14.2366 31.3962ZM26.3112 24.0768C25.9269 24.4662 25.2952 24.4662 24.9044 24.0768C24.8914 24.0636 24.8784 24.0504 24.8588 24.0371L20.6972 19.7736C20.4432 19.5162 20.0394 19.5162 19.7789 19.767C19.5249 20.0244 19.5249 20.4336 19.7724 20.6976L23.9796 25.0074C24.3639 25.3968 24.3639 26.037 23.9796 26.433C23.7908 26.6244 23.5433 26.73 23.2763 26.73C23.0092 26.73 22.7617 26.6244 22.5729 26.433L19.7594 23.5488C19.5054 23.2914 19.1016 23.2913 18.8411 23.5422C18.5871 23.7995 18.5871 24.2154 18.8346 24.4728L21.6025 27.3108C21.6155 27.3306 21.6285 27.3438 21.6481 27.3636C22.0323 27.753 22.0323 28.3932 21.6481 28.7892C21.2638 29.1786 20.6321 29.1786 20.2413 28.7892L18.7043 27.2184C18.4503 26.961 18.04 26.961 17.786 27.2118C17.532 27.4692 17.532 27.8783 17.7795 28.1423L19.2709 29.6735C19.2839 29.6933 19.297 29.7066 19.3165 29.7264C19.7008 30.1158 19.7008 30.756 19.3165 31.152C18.9323 31.5414 18.3005 31.5414 17.9098 31.152C17.8642 31.1058 17.8121 31.0728 17.76 31.0332C17.7144 31.0002 17.7079 30.9804 17.7274 30.9276C17.7469 30.8748 17.7795 30.8286 17.8056 30.7758C17.8316 30.7164 17.8511 30.657 17.8642 30.5976C17.9619 30.2742 17.9944 29.9244 17.9488 29.5878C17.8642 28.941 17.5125 28.3602 16.985 27.9906C16.6984 27.7926 16.3662 27.6606 16.0211 27.6144C16.1904 26.8686 15.9885 26.0634 15.4675 25.5024C15.0376 25.0404 14.458 24.783 13.8393 24.7764C13.8198 24.7764 13.7937 24.7764 13.7742 24.7764C13.7872 24.1758 13.5723 23.5752 13.162 23.1396C12.7321 22.6842 12.1525 22.4268 11.5338 22.4136C11.3514 22.4136 11.1626 22.4334 10.9802 22.473C10.9021 21.9318 10.635 21.4302 10.2247 21.0672C9.82095 20.7108 9.30645 20.5128 8.75938 20.5062C8.18626 20.4996 7.61965 20.7108 7.19632 21.1002L4.69543 17.6814L10.6806 10.2893L12.5889 10.8173L10.101 15.2723C9.80141 15.8135 9.72326 16.4339 9.88608 17.0345C10.0489 17.6286 10.4331 18.1302 10.9607 18.4338C10.9932 18.4536 11.0258 18.4734 11.0584 18.4866C11.0584 18.4866 11.0649 18.4866 11.0649 18.4932C11.1561 18.5394 11.2472 18.579 11.3384 18.612C11.7748 18.7638 12.2437 18.7836 12.6931 18.6516C13.2792 18.4866 13.7742 18.0972 14.0738 17.5626L15.6954 14.6651L18.5871 14.8698L26.3112 22.6512C26.6954 23.0472 26.6954 23.6808 26.3112 24.0768ZM26.5782 21.0672L19.3556 13.7544C19.3426 13.7411 19.3295 13.728 19.31 13.7148C19.2058 13.629 19.0755 13.5761 18.9388 13.5629L15.4024 13.3055C15.1549 13.2857 14.9139 13.4177 14.7967 13.6356L12.9796 16.8894C12.8494 17.1204 12.6345 17.292 12.3805 17.3645C12.1265 17.4372 11.8594 17.4042 11.625 17.2722C11.397 17.1402 11.2277 16.9223 11.1561 16.665C11.0844 16.4075 11.117 16.137 11.2472 15.8994L13.6765 11.5565L14.6599 11.2727C14.6664 11.2727 14.6729 11.2661 14.6794 11.2661L18.3526 10.1903H22.7943L28.3366 17.3316L26.5782 21.0672ZM29.1898 16.2954L24.0643 9.68875L26.6824 8.00575L31.4693 14.3088L29.1898 16.2954Z" fill="#A6C34F" stroke="#A6C34F" stroke-width="0.5"/>
<path d="M19.994 7.64276C20.1569 7.64276 20.3262 7.57676 20.4499 7.45136L24.8721 2.96996C25.1261 2.71256 25.1261 2.29676 24.8721 2.03936C24.6181 1.78196 24.2078 1.78196 23.9538 2.03936L19.5382 6.52736C19.2842 6.78476 19.2842 7.20056 19.5382 7.45796C19.6619 7.58336 19.8312 7.64276 19.994 7.64276Z" fill="#A6C34F" stroke="#A6C34F" stroke-width="0.5"/>
<path d="M12.55 7.45135C12.6738 7.57675 12.8431 7.64275 13.0059 7.64275C13.1687 7.64275 13.3381 7.57675 13.4618 7.45135C13.7158 7.19395 13.7158 6.77815 13.4618 6.52075L9.04617 2.04596C8.79217 1.78856 8.38187 1.78856 8.12788 2.04596C7.87388 2.30336 7.87388 2.71916 8.12788 2.97656L12.55 7.45135Z" fill="#A6C34F" stroke="#A6C34F" stroke-width="0.5"/>
<path d="M16.5033 7.64283C16.8615 7.64283 17.148 7.35243 17.148 6.98943V3.28023C17.148 2.91723 16.855 2.62683 16.5033 2.62683C16.1451 2.62683 15.8585 2.92383 15.8585 3.28023V6.98943C15.852 7.35243 16.1451 7.64283 16.5033 7.64283Z" fill="#A6C34F" stroke="#A6C34F" stroke-width="0.5"/>
<path d="M15.9041 0.904184C16.0083 1.15498 16.2623 1.31998 16.5358 1.30678C16.8028 1.29358 17.0373 1.10878 17.1219 0.851384C17.2066 0.593983 17.1154 0.296983 16.9005 0.131983C16.6791 -0.0396168 16.3795 -0.0462168 16.145 0.105583C15.8845 0.277183 15.7868 0.620383 15.9041 0.904184Z" fill="#A6C34F" stroke="#A6C34F" stroke-width="0.5"/>
</g>
<defs>
<clipPath id="clip0_17_524">
<rect width="33" height="33" fill="white"/>
</clipPath>
</defs>
</svg>
