<svg width="15" height="13" viewBox="0 0 15 13" fill="none" xmlns="http://www.w3.org/2000/svg">
<g clip-path="url(#clip0_17_551)">
<rect width="14.8855" height="12.9008" fill="white"/>
<path d="M14.7544 0.921631L10.2399 6.45032L14.7544 11.979C14.8361 11.7687 14.8855 11.5365 14.8855 11.2881V1.61254C14.8855 1.3642 14.8361 1.13198 14.7544 0.921631Z" fill="#9CC634"/>
<path d="M8.3679 7.23768L14.1378 0.161618C13.9671 0.0609202 13.7787 0 13.5772 0H1.30833C1.10686 0 0.918463 0.0609202 0.747803 0.161618L6.51768 7.23768C7.02791 7.86659 7.85766 7.86659 8.3679 7.23768Z" fill="#9CC634"/>
<path d="M0.13112 0.921631C0.0494245 1.13198 0 1.3642 0 1.61254V11.2881C0 11.5365 0.0494245 11.7687 0.13112 11.979L4.64561 6.45032L0.13112 0.921631Z" fill="#9CC634"/>
<path d="M8.98454 7.99775C8.13444 9.04558 6.75113 9.04558 5.90132 7.99775L5.26229 7.21045L0.747803 12.7391C0.918463 12.8398 1.10686 12.9008 1.30833 12.9008H13.5772C13.7787 12.9008 13.9671 12.8398 14.1378 12.7391L9.62328 7.21045L8.98454 7.99775Z" fill="#9CC634"/>
</g>
<defs>
<clipPath id="clip0_17_551">
<rect width="14.8855" height="12.9008" fill="white"/>
</clipPath>
</defs>
</svg>
