<svg width="13" height="13" viewBox="0 0 13 13" fill="none" xmlns="http://www.w3.org/2000/svg">
<path d="M4.02358 5.58185C4.34823 6.94091 6.10131 8.62355 7.39988 8.94714C7.98424 9.07657 8.63353 8.75299 8.82832 8.17053C9.08803 7.32921 10.1918 7.07034 10.8411 7.71751L12.6591 9.52959C13.1136 9.98261 13.1136 10.7592 12.6591 11.277L11.4255 12.5066C10.1269 13.8009 6.68567 12.3771 3.63401 9.33544C0.582352 6.29374 -0.781155 2.86373 0.452494 1.56939L1.68614 0.339765C2.14065 -0.113255 2.91979 -0.113255 3.43922 0.339765L5.25723 2.15184C5.90652 2.79901 5.6468 3.8992 4.80273 4.15807C4.21837 4.35222 3.8288 4.9994 4.02358 5.58185Z" fill="#9CC634"/>
</svg>
